<mxfile host="app.diagrams.net" modified="2024-02-05T20:19:38.536Z" agent="Mozilla/5.0 (Windows NT 10.0; Win64; x64) AppleWebKit/537.36 (KHTML, like Gecko) Chrome/120.0.0.0 Safari/537.36" version="22.1.18" etag="GnmpHRWS2U6O3iMQ6Dmc" type="github">
  <diagram name="PÃ¡gina-1" id="hb2rHDJhHUKWn0PCYaVr">
    <mxGraphModel>
      <root>
        <mxCell id="0" />
        <mxCell id="1" parent="0" />
      </root>
    </mxGraphModel>
  </diagram>
</mxfile>
